<svg width="113" height="38" viewBox="0 0 113 38" fill="none" xmlns="http://www.w3.org/2000/svg">
<path d="M15.704 2.91999C17.784 2.91999 19.624 3.22399 21.224 3.83199C22.856 4.43999 24.392 5.35199 25.832 6.568L22.088 11.032C21.096 10.264 20.12 9.688 19.16 9.304C18.2 8.91999 17.176 8.72799 16.088 8.72799C13.848 8.72799 12.072 9.67199 10.76 11.56C9.47999 13.448 8.83998 16.36 8.83998 20.296C8.83998 24.168 9.47999 27.048 10.76 28.936C12.072 30.792 13.88 31.72 16.184 31.72C17.4 31.72 18.504 31.496 19.496 31.048C20.488 30.568 21.56 29.896 22.712 29.032L26.216 33.544C24.968 34.792 23.448 35.816 21.656 36.616C19.896 37.416 17.944 37.816 15.8 37.816C12.728 37.816 10.056 37.144 7.78399 35.8C5.51198 34.456 3.73598 32.472 2.45598 29.848C1.20798 27.192 0.583984 24.008 0.583984 20.296C0.583984 16.68 1.22398 13.56 2.50398 10.936C3.81598 8.312 5.60798 6.328 7.87998 4.98399C10.184 3.60799 12.792 2.91999 15.704 2.91999Z" fill="#141414"/>
<path d="M49.3726 29.608C49.3726 30.568 49.5006 31.272 49.7566 31.72C50.0446 32.168 50.4926 32.504 51.1006 32.728L49.5166 37.672C47.9486 37.544 46.6686 37.208 45.6766 36.664C44.6846 36.088 43.9166 35.192 43.3726 33.976C41.7086 36.536 39.1486 37.816 35.6926 37.816C33.1646 37.816 31.1486 37.08 29.6446 35.608C28.1406 34.136 27.3886 32.216 27.3886 29.848C27.3886 27.064 28.4126 24.936 30.4606 23.464C32.5086 21.992 35.4686 21.256 39.3406 21.256H41.9326V20.152C41.9326 18.648 41.6126 17.624 40.9726 17.08C40.3326 16.504 39.2126 16.216 37.6126 16.216C36.7806 16.216 35.7726 16.344 34.5886 16.6C33.4046 16.824 32.1886 17.144 30.9406 17.56L29.2126 12.568C30.8126 11.96 32.4446 11.496 34.1086 11.176C35.8046 10.856 37.3726 10.696 38.8126 10.696C42.4606 10.696 45.1326 11.448 46.8286 12.952C48.5246 14.456 49.3726 16.712 49.3726 19.72V29.608ZM37.9006 32.392C39.6286 32.392 40.9726 31.576 41.9326 29.944V25.432H40.0606C38.3326 25.432 37.0366 25.736 36.1726 26.344C35.3406 26.952 34.9246 27.896 34.9246 29.176C34.9246 30.2 35.1806 31 35.6926 31.576C36.2366 32.12 36.9726 32.392 37.9006 32.392Z" fill="#141414"/>
<path d="M69.2375 10.792C70.1655 10.792 71.0135 10.904 71.7815 11.128L70.5815 18.472C69.6215 18.248 68.8535 18.136 68.2775 18.136C66.7735 18.136 65.6215 18.664 64.8215 19.72C64.0535 20.744 63.4455 22.296 62.9975 24.376V37H55.4135V11.512H62.0375L62.6615 16.456C63.2375 14.696 64.1015 13.32 65.2535 12.328C66.4375 11.304 67.7655 10.792 69.2375 10.792Z" fill="#141414"/>
<path d="M84.266 10.696C88.17 10.696 91.226 11.896 93.434 14.296C95.642 16.664 96.746 19.992 96.746 24.28C96.746 27 96.234 29.384 95.21 31.432C94.218 33.448 92.778 35.016 90.89 36.136C89.034 37.256 86.826 37.816 84.266 37.816C80.394 37.816 77.338 36.632 75.098 34.264C72.89 31.864 71.786 28.52 71.786 24.232C71.786 21.512 72.282 19.144 73.274 17.128C74.298 15.08 75.738 13.496 77.594 12.376C79.482 11.256 81.706 10.696 84.266 10.696ZM84.266 16.264C82.73 16.264 81.578 16.92 80.81 18.232C80.042 19.512 79.658 21.512 79.658 24.232C79.658 27.016 80.026 29.048 80.762 30.328C81.53 31.608 82.698 32.248 84.266 32.248C85.802 32.248 86.954 31.608 87.722 30.328C88.49 29.016 88.874 27 88.874 24.28C88.874 21.496 88.49 19.464 87.722 18.184C86.986 16.904 85.834 16.264 84.266 16.264Z" fill="#141414"/>
<path d="M108.025 37.816C105.817 37.816 104.089 37.192 102.841 35.944C101.625 34.664 101.017 32.856 101.017 30.52V1.38399L108.601 0.567993V30.232C108.601 31.288 109.033 31.816 109.897 31.816C110.345 31.816 110.761 31.736 111.145 31.576L112.633 36.952C111.257 37.528 109.721 37.816 108.025 37.816Z" fill="#141414"/>
</svg>
